  0
SECTION
  2
HEADER
  9
$ACADVER
  1
AC1009
  9
$FILLMODE
 70
 0
  9
$SPLFRAME
 70
 1
  9
$EXTMIN
 10
0
 20
0
 30
0.0
  9
$EXTMAX
 10
1058.33
 20
1058.33
 30
0.0
  0
ENDSEC
  0
SECTION
  2
TABLES
  0
TABLE
  2
LAYER
 70
1
  0
LAYER
  2
0
 70
     0
 62
     7
  6
CONTINUOUS
  0
ENDTAB
  0
ENDSEC
  0
SECTION
  2
ENTITIES
  0
LINE
  8
0
 62
     0
 10
378.097
 20
95.5075
 30
0.0
 11
378.333
 21
95.498
 31
0.0
  0
LINE
  8
0
 62
     0
 10
378.333
 20
95.498
 30
0.0
 11
378.566
 21
95.4719
 31
0.0
  0
LINE
  8
0
 62
     0
 10
378.566
 20
95.4719
 30
0.0
 11
378.795
 21
95.425
 31
0.0
  0
LINE
  8
0
 62
     0
 10
378.795
 20
95.425
 30
0.0
 11
379.024
 21
95.3615
 31
0.0
  0
LINE
  8
0
 62
     0
 10
379.024
 20
95.3615
 30
0.0
 11
379.243
 21
95.2789
 31
0.0
  0
LINE
  8
0
 62
     0
 10
379.243
 20
95.2789
 30
0.0
 11
379.458
 21
95.1812
 31
0.0
  0
LINE
  8
0
 62
     0
 10
379.458
 20
95.1812
 30
0.0
 11
379.663
 21
95.0655
 31
0.0
  0
LINE
  8
0
 62
     0
 10
379.663
 20
95.0655
 30
0.0
 11
379.861
 21
94.9357
 31
0.0
  0
LINE
  8
0
 62
     0
 10
379.861
 20
94.9357
 30
0.0
 11
380.044
 21
94.7896
 31
0.0
  0
LINE
  8
0
 62
     0
 10
380.044
 20
94.7896
 30
0.0
 11
380.217
 21
94.6298
 31
0.0
  0
LINE
  8
0
 62
     0
 10
380.217
 20
94.6298
 30
0.0
 11
380.376
 21
94.4563
 31
0.0
  0
LINE
  8
0
 62
     0
 10
380.376
 20
94.4563
 30
0.0
 11
380.524
 21
94.2717
 31
0.0
  0
LINE
  8
0
 62
     0
 10
380.524
 20
94.2717
 30
0.0
 11
380.654
 21
94.076
 31
0.0
  0
LINE
  8
0
 62
     0
 10
380.654
 20
94.076
 30
0.0
 11
380.771
 21
93.8692
 31
0.0
  0
LINE
  8
0
 62
     0
 10
380.771
 20
93.8692
 30
0.0
 11
380.869
 21
93.6554
 31
0.0
  0
LINE
  8
0
 62
     0
 10
380.869
 20
93.6554
 30
0.0
 11
380.951
 21
93.435
 31
0.0
  0
LINE
  8
0
 62
     0
 10
380.951
 20
93.435
 30
0.0
 11
381.014
 21
93.2078
 31
0.0
  0
LINE
  8
0
 62
     0
 10
381.014
 20
93.2078
 30
0.0
 11
381.06
 21
92.9778
 31
0.0
  0
LINE
  8
0
 62
     0
 10
381.06
 20
92.9778
 30
0.0
 11
381.088
 21
92.7435
 31
0.0
  0
LINE
  8
0
 62
     0
 10
381.088
 20
92.7435
 30
0.0
 11
381.095
 21
92.5079
 31
0.0
  0
LINE
  8
0
 62
     0
 10
381.095
 20
92.5079
 30
0.0
 11
381.095
 21
3.2563
 31
0.0
  0
LINE
  8
0
 62
     0
 10
381.095
 20
3.2563
 30
0.0
 11
381.088
 21
3.02066
 31
0.0
  0
LINE
  8
0
 62
     0
 10
381.088
 20
3.02066
 30
0.0
 11
381.06
 21
2.78777
 31
0.0
  0
LINE
  8
0
 62
     0
 10
381.06
 20
2.78777
 30
0.0
 11
381.014
 21
2.55626
 31
0.0
  0
LINE
  8
0
 62
     0
 10
381.014
 20
2.55626
 30
0.0
 11
380.951
 21
2.32888
 31
0.0
  0
LINE
  8
0
 62
     0
 10
380.951
 20
2.32888
 30
0.0
 11
380.869
 21
2.1084
 31
0.0
  0
LINE
  8
0
 62
     0
 10
380.869
 20
2.1084
 30
0.0
 11
380.771
 21
1.8948
 31
0.0
  0
LINE
  8
0
 62
     0
 10
380.771
 20
1.8948
 30
0.0
 11
380.654
 21
1.68947
 31
0.0
  0
LINE
  8
0
 62
     0
 10
380.654
 20
1.68947
 30
0.0
 11
380.524
 21
1.4938
 31
0.0
  0
LINE
  8
0
 62
     0
 10
380.524
 20
1.4938
 30
0.0
 11
380.376
 21
1.30776
 31
0.0
  0
LINE
  8
0
 62
     0
 10
380.376
 20
1.30776
 30
0.0
 11
380.217
 21
1.1355
 31
0.0
  0
LINE
  8
0
 62
     0
 10
380.217
 20
1.1355
 30
0.0
 11
380.044
 21
0.975653
 31
0.0
  0
LINE
  8
0
 62
     0
 10
380.044
 20
0.975653
 30
0.0
 11
379.861
 21
0.829578
 31
0.0
  0
LINE
  8
0
 62
     0
 10
379.861
 20
0.829578
 30
0.0
 11
379.663
 21
0.698666
 31
0.0
  0
LINE
  8
0
 62
     0
 10
379.663
 20
0.698666
 30
0.0
 11
379.458
 21
0.582909
 31
0.0
  0
LINE
  8
0
 62
     0
 10
379.458
 20
0.582909
 30
0.0
 11
379.243
 21
0.485069
 31
0.0
  0
LINE
  8
0
 62
     0
 10
379.243
 20
0.485069
 30
0.0
 11
379.024
 21
0.403765
 31
0.0
  0
LINE
  8
0
 62
     0
 10
379.024
 20
0.403765
 30
0.0
 11
378.795
 21
0.338998
 31
0.0
  0
LINE
  8
0
 62
     0
 10
378.795
 20
0.338998
 30
0.0
 11
378.566
 21
0.293522
 31
0.0
  0
LINE
  8
0
 62
     0
 10
378.566
 20
0.293522
 30
0.0
 11
378.333
 21
0.265961
 31
0.0
  0
LINE
  8
0
 62
     0
 10
378.333
 20
0.265961
 30
0.0
 11
378.097
 21
0.256315
 31
0.0
  0
LINE
  8
0
 62
     0
 10
378.097
 20
0.256315
 30
0.0
 11
3.09507
 21
0.256315
 31
0.0
  0
LINE
  8
0
 62
     0
 10
3.09507
 20
0.256315
 30
0.0
 11
2.85943
 21
0.265961
 31
0.0
  0
LINE
  8
0
 62
     0
 10
2.85943
 20
0.265961
 30
0.0
 11
2.62516
 21
0.293522
 31
0.0
  0
LINE
  8
0
 62
     0
 10
2.62516
 20
0.293522
 30
0.0
 11
2.39503
 21
0.338998
 31
0.0
  0
LINE
  8
0
 62
     0
 10
2.39503
 20
0.338998
 30
0.0
 11
2.16765
 21
0.403765
 31
0.0
  0
LINE
  8
0
 62
     0
 10
2.16765
 20
0.403765
 30
0.0
 11
1.94717
 21
0.485069
 31
0.0
  0
LINE
  8
0
 62
     0
 10
1.94717
 20
0.485069
 30
0.0
 11
1.73357
 21
0.582909
 31
0.0
  0
LINE
  8
0
 62
     0
 10
1.73357
 20
0.582909
 30
0.0
 11
1.52687
 21
0.698666
 31
0.0
  0
LINE
  8
0
 62
     0
 10
1.52687
 20
0.698666
 30
0.0
 11
1.33119
 21
0.829578
 31
0.0
  0
LINE
  8
0
 62
     0
 10
1.33119
 20
0.829578
 30
0.0
 11
1.14653
 21
0.975653
 31
0.0
  0
LINE
  8
0
 62
     0
 10
1.14653
 20
0.975653
 30
0.0
 11
0.972894
 21
1.1355
 31
0.0
  0
LINE
  8
0
 62
     0
 10
0.972894
 20
1.1355
 30
0.0
 11
0.813043
 21
1.30776
 31
0.0
  0
LINE
  8
0
 62
     0
 10
0.813043
 20
1.30776
 30
0.0
 11
0.666972
 21
1.4938
 31
0.0
  0
LINE
  8
0
 62
     0
 10
0.666972
 20
1.4938
 30
0.0
 11
0.537436
 21
1.68947
 31
0.0
  0
LINE
  8
0
 62
     0
 10
0.537436
 20
1.68947
 30
0.0
 11
0.421679
 21
1.8948
 31
0.0
  0
LINE
  8
0
 62
     0
 10
0.421679
 20
1.8948
 30
0.0
 11
0.323839
 21
2.1084
 31
0.0
  0
LINE
  8
0
 62
     0
 10
0.323839
 20
2.1084
 30
0.0
 11
0.241157
 21
2.32888
 31
0.0
  0
LINE
  8
0
 62
     0
 10
0.241157
 20
2.32888
 30
0.0
 11
0.177767
 21
2.55626
 31
0.0
  0
LINE
  8
0
 62
     0
 10
0.177767
 20
2.55626
 30
0.0
 11
0.130914
 21
2.78777
 31
0.0
  0
LINE
  8
0
 62
     0
 10
0.130914
 20
2.78777
 30
0.0
 11
0.104731
 21
3.02066
 31
0.0
  0
LINE
  8
0
 62
     0
 10
0.104731
 20
3.02066
 30
0.0
 11
0.0950846
 21
3.25768
 31
0.0
  0
LINE
  8
0
 62
     0
 10
0.0950846
 20
3.25768
 30
0.0
 11
0.0950846
 21
92.5079
 31
0.0
  0
LINE
  8
0
 62
     0
 10
0.0950846
 20
92.5079
 30
0.0
 11
0.104731
 21
92.7435
 31
0.0
  0
LINE
  8
0
 62
     0
 10
0.104731
 20
92.7435
 30
0.0
 11
0.130914
 21
92.9778
 31
0.0
  0
LINE
  8
0
 62
     0
 10
0.130914
 20
92.9778
 30
0.0
 11
0.177767
 21
93.2078
 31
0.0
  0
LINE
  8
0
 62
     0
 10
0.177767
 20
93.2078
 30
0.0
 11
0.241157
 21
93.435
 31
0.0
  0
LINE
  8
0
 62
     0
 10
0.241157
 20
93.435
 30
0.0
 11
0.323839
 21
93.6554
 31
0.0
  0
LINE
  8
0
 62
     0
 10
0.323839
 20
93.6554
 30
0.0
 11
0.421679
 21
93.8692
 31
0.0
  0
LINE
  8
0
 62
     0
 10
0.421679
 20
93.8692
 30
0.0
 11
0.537436
 21
94.076
 31
0.0
  0
LINE
  8
0
 62
     0
 10
0.537436
 20
94.076
 30
0.0
 11
0.666972
 21
94.2717
 31
0.0
  0
LINE
  8
0
 62
     0
 10
0.666972
 20
94.2717
 30
0.0
 11
0.813043
 21
94.4563
 31
0.0
  0
LINE
  8
0
 62
     0
 10
0.813043
 20
94.4563
 30
0.0
 11
0.972894
 21
94.6298
 31
0.0
  0
LINE
  8
0
 62
     0
 10
0.972894
 20
94.6298
 30
0.0
 11
1.14653
 21
94.7896
 31
0.0
  0
LINE
  8
0
 62
     0
 10
1.14653
 20
94.7896
 30
0.0
 11
1.33119
 21
94.9357
 31
0.0
  0
LINE
  8
0
 62
     0
 10
1.33119
 20
94.9357
 30
0.0
 11
1.52687
 21
95.0655
 31
0.0
  0
LINE
  8
0
 62
     0
 10
1.52687
 20
95.0655
 30
0.0
 11
1.73357
 21
95.1812
 31
0.0
  0
LINE
  8
0
 62
     0
 10
1.73357
 20
95.1812
 30
0.0
 11
1.94717
 21
95.2789
 31
0.0
  0
LINE
  8
0
 62
     0
 10
1.94717
 20
95.2789
 30
0.0
 11
2.16765
 21
95.3615
 31
0.0
  0
LINE
  8
0
 62
     0
 10
2.16765
 20
95.3615
 30
0.0
 11
2.39503
 21
95.425
 31
0.0
  0
LINE
  8
0
 62
     0
 10
2.39503
 20
95.425
 30
0.0
 11
2.62516
 21
95.4719
 31
0.0
  0
LINE
  8
0
 62
     0
 10
2.62516
 20
95.4719
 30
0.0
 11
2.85943
 21
95.498
 31
0.0
  0
LINE
  8
0
 62
     0
 10
2.85943
 20
95.498
 30
0.0
 11
3.09507
 21
95.5075
 31
0.0
  0
LINE
  8
0
 62
     0
 10
3.09507
 20
95.5075
 30
0.0
 11
378.097
 21
95.5075
 31
0.0
  0
LINE
  8
0
 62
     0
 10
124.062
 20
16.7817
 30
0.0
 11
124.062
 21
12.0826
 31
0.0
  0
LINE
  8
0
 62
     0
 10
124.062
 20
12.0826
 30
0.0
 11
84.4381
 21
12.0826
 31
0.0
  0
LINE
  8
0
 62
     0
 10
84.4381
 20
12.0826
 30
0.0
 11
84.4381
 21
15.3128
 31
0.0
  0
LINE
  8
0
 62
     0
 10
84.4381
 20
15.3128
 30
0.0
 11
77.6884
 21
15.3128
 31
0.0
  0
LINE
  8
0
 62
     0
 10
77.6884
 20
15.3128
 30
0.0
 11
77.6884
 21
12.0826
 31
0.0
  0
LINE
  8
0
 62
     0
 10
77.6884
 20
12.0826
 30
0.0
 11
76.8629
 21
12.0826
 31
0.0
  0
LINE
  8
0
 62
     0
 10
76.8629
 20
12.0826
 30
0.0
 11
76.8629
 21
9.28247
 31
0.0
  0
LINE
  8
0
 62
     0
 10
76.8629
 20
9.28247
 30
0.0
 11
77.6884
 21
9.28247
 31
0.0
  0
LINE
  8
0
 62
     0
 10
77.6884
 20
9.28247
 30
0.0
 11
77.6884
 21
3.01377
 31
0.0
  0
LINE
  8
0
 62
     0
 10
77.6884
 20
3.01377
 30
0.0
 11
79.4135
 21
3.01377
 31
0.0
  0
LINE
  8
0
 62
     0
 10
79.4135
 20
3.01377
 30
0.0
 11
79.4135
 21
1.81212
 31
0.0
  0
LINE
  8
0
 62
     0
 10
79.4135
 20
1.81212
 30
0.0
 11
82.714
 21
1.81212
 31
0.0
  0
LINE
  8
0
 62
     0
 10
82.714
 20
1.81212
 30
0.0
 11
82.714
 21
3.01377
 31
0.0
  0
LINE
  8
0
 62
     0
 10
82.714
 20
3.01377
 30
0.0
 11
84.4381
 21
3.01377
 31
0.0
  0
LINE
  8
0
 62
     0
 10
84.4381
 20
3.01377
 30
0.0
 11
84.4381
 21
7.48273
 31
0.0
  0
LINE
  8
0
 62
     0
 10
84.4381
 20
7.48273
 30
0.0
 11
124.062
 21
7.48273
 31
0.0
  0
LINE
  8
0
 62
     0
 10
124.062
 20
7.48273
 30
0.0
 11
124.062
 21
2.78226
 31
0.0
  0
LINE
  8
0
 62
     0
 10
124.062
 20
2.78226
 30
0.0
 11
138.063
 21
2.78226
 31
0.0
  0
LINE
  8
0
 62
     0
 10
138.063
 20
2.78226
 30
0.0
 11
138.063
 21
7.48273
 31
0.0
  0
LINE
  8
0
 62
     0
 10
138.063
 20
7.48273
 30
0.0
 11
177.689
 21
7.48273
 31
0.0
  0
LINE
  8
0
 62
     0
 10
177.689
 20
7.48273
 30
0.0
 11
177.689
 21
3.01377
 31
0.0
  0
LINE
  8
0
 62
     0
 10
177.689
 20
3.01377
 30
0.0
 11
179.414
 21
3.01377
 31
0.0
  0
LINE
  8
0
 62
     0
 10
179.414
 20
3.01377
 30
0.0
 11
179.414
 21
1.81212
 31
0.0
  0
LINE
  8
0
 62
     0
 10
179.414
 20
1.81212
 30
0.0
 11
182.714
 21
1.81212
 31
0.0
  0
LINE
  8
0
 62
     0
 10
182.714
 20
1.81212
 30
0.0
 11
182.714
 21
3.01377
 31
0.0
  0
LINE
  8
0
 62
     0
 10
182.714
 20
3.01377
 30
0.0
 11
184.438
 21
3.01377
 31
0.0
  0
LINE
  8
0
 62
     0
 10
184.438
 20
3.01377
 30
0.0
 11
184.438
 21
9.28247
 31
0.0
  0
LINE
  8
0
 62
     0
 10
184.438
 20
9.28247
 30
0.0
 11
185.263
 21
9.28247
 31
0.0
  0
LINE
  8
0
 62
     0
 10
185.263
 20
9.28247
 30
0.0
 11
185.263
 21
12.0826
 31
0.0
  0
LINE
  8
0
 62
     0
 10
185.263
 20
12.0826
 30
0.0
 11
184.438
 21
12.0826
 31
0.0
  0
LINE
  8
0
 62
     0
 10
184.438
 20
12.0826
 30
0.0
 11
184.438
 21
15.3128
 31
0.0
  0
LINE
  8
0
 62
     0
 10
184.438
 20
15.3128
 30
0.0
 11
177.689
 21
15.3128
 31
0.0
  0
LINE
  8
0
 62
     0
 10
177.689
 20
15.3128
 30
0.0
 11
177.689
 21
12.0826
 31
0.0
  0
LINE
  8
0
 62
     0
 10
177.689
 20
12.0826
 30
0.0
 11
138.063
 21
12.0826
 31
0.0
  0
LINE
  8
0
 62
     0
 10
138.063
 20
12.0826
 30
0.0
 11
138.063
 21
16.7817
 31
0.0
  0
LINE
  8
0
 62
     0
 10
138.063
 20
16.7817
 30
0.0
 11
124.062
 21
16.7817
 31
0.0
  0
LINE
  8
0
 62
     0
 10
316.946
 20
16.7817
 30
0.0
 11
316.946
 21
12.0826
 31
0.0
  0
LINE
  8
0
 62
     0
 10
316.946
 20
12.0826
 30
0.0
 11
315.42
 21
12.0826
 31
0.0
  0
LINE
  8
0
 62
     0
 10
315.42
 20
12.0826
 30
0.0
 11
315.42
 21
15.3128
 31
0.0
  0
LINE
  8
0
 62
     0
 10
315.42
 20
15.3128
 30
0.0
 11
308.671
 21
15.3128
 31
0.0
  0
LINE
  8
0
 62
     0
 10
308.671
 20
15.3128
 30
0.0
 11
308.671
 21
12.0826
 31
0.0
  0
LINE
  8
0
 62
     0
 10
308.671
 20
12.0826
 30
0.0
 11
307.846
 21
12.0826
 31
0.0
  0
LINE
  8
0
 62
     0
 10
307.846
 20
12.0826
 30
0.0
 11
307.846
 21
9.28247
 31
0.0
  0
LINE
  8
0
 62
     0
 10
307.846
 20
9.28247
 30
0.0
 11
308.671
 21
9.28247
 31
0.0
  0
LINE
  8
0
 62
     0
 10
308.671
 20
9.28247
 30
0.0
 11
308.671
 21
3.01377
 31
0.0
  0
LINE
  8
0
 62
     0
 10
308.671
 20
3.01377
 30
0.0
 11
310.395
 21
3.01377
 31
0.0
  0
LINE
  8
0
 62
     0
 10
310.395
 20
3.01377
 30
0.0
 11
310.395
 21
1.81212
 31
0.0
  0
LINE
  8
0
 62
     0
 10
310.395
 20
1.81212
 30
0.0
 11
313.695
 21
1.81212
 31
0.0
  0
LINE
  8
0
 62
     0
 10
313.695
 20
1.81212
 30
0.0
 11
313.695
 21
3.01377
 31
0.0
  0
LINE
  8
0
 62
     0
 10
313.695
 20
3.01377
 30
0.0
 11
315.42
 21
3.01377
 31
0.0
  0
LINE
  8
0
 62
     0
 10
315.42
 20
3.01377
 30
0.0
 11
315.42
 21
7.48273
 31
0.0
  0
LINE
  8
0
 62
     0
 10
315.42
 20
7.48273
 30
0.0
 11
316.946
 21
7.48273
 31
0.0
  0
LINE
  8
0
 62
     0
 10
316.946
 20
7.48273
 30
0.0
 11
316.946
 21
2.78226
 31
0.0
  0
LINE
  8
0
 62
     0
 10
316.946
 20
2.78226
 30
0.0
 11
330.945
 21
2.78226
 31
0.0
  0
LINE
  8
0
 62
     0
 10
330.945
 20
2.78226
 30
0.0
 11
330.945
 21
7.48273
 31
0.0
  0
LINE
  8
0
 62
     0
 10
330.945
 20
7.48273
 30
0.0
 11
332.471
 21
7.48273
 31
0.0
  0
LINE
  8
0
 62
     0
 10
332.471
 20
7.48273
 30
0.0
 11
332.471
 21
3.01377
 31
0.0
  0
LINE
  8
0
 62
     0
 10
332.471
 20
3.01377
 30
0.0
 11
334.195
 21
3.01377
 31
0.0
  0
LINE
  8
0
 62
     0
 10
334.195
 20
3.01377
 30
0.0
 11
334.195
 21
1.81212
 31
0.0
  0
LINE
  8
0
 62
     0
 10
334.195
 20
1.81212
 30
0.0
 11
337.495
 21
1.81212
 31
0.0
  0
LINE
  8
0
 62
     0
 10
337.495
 20
1.81212
 30
0.0
 11
337.495
 21
3.01377
 31
0.0
  0
LINE
  8
0
 62
     0
 10
337.495
 20
3.01377
 30
0.0
 11
339.221
 21
3.01377
 31
0.0
  0
LINE
  8
0
 62
     0
 10
339.221
 20
3.01377
 30
0.0
 11
339.221
 21
9.28247
 31
0.0
  0
LINE
  8
0
 62
     0
 10
339.221
 20
9.28247
 30
0.0
 11
340.046
 21
9.28247
 31
0.0
  0
LINE
  8
0
 62
     0
 10
340.046
 20
9.28247
 30
0.0
 11
340.046
 21
12.0826
 31
0.0
  0
LINE
  8
0
 62
     0
 10
340.046
 20
12.0826
 30
0.0
 11
339.221
 21
12.0826
 31
0.0
  0
LINE
  8
0
 62
     0
 10
339.221
 20
12.0826
 30
0.0
 11
339.221
 21
15.3128
 31
0.0
  0
LINE
  8
0
 62
     0
 10
339.221
 20
15.3128
 30
0.0
 11
332.471
 21
15.3128
 31
0.0
  0
LINE
  8
0
 62
     0
 10
332.471
 20
15.3128
 30
0.0
 11
332.471
 21
12.0826
 31
0.0
  0
LINE
  8
0
 62
     0
 10
332.471
 20
12.0826
 30
0.0
 11
330.945
 21
12.0826
 31
0.0
  0
LINE
  8
0
 62
     0
 10
330.945
 20
12.0826
 30
0.0
 11
330.945
 21
16.7817
 31
0.0
  0
LINE
  8
0
 62
     0
 10
330.945
 20
16.7817
 30
0.0
 11
316.946
 21
16.7817
 31
0.0
  0
LINE
  8
0
 62
     0
 10
2.62103
 20
16.7817
 30
0.0
 11
16.6205
 21
16.7817
 31
0.0
  0
LINE
  8
0
 62
     0
 10
16.6205
 20
16.7817
 30
0.0
 11
16.6205
 21
2.78226
 31
0.0
  0
LINE
  8
0
 62
     0
 10
16.6205
 20
2.78226
 30
0.0
 11
2.62103
 21
2.78226
 31
0.0
  0
LINE
  8
0
 62
     0
 10
2.62103
 20
2.78226
 30
0.0
 11
2.62103
 21
16.7817
 31
0.0
  0
LINE
  8
0
 62
     0
 10
24.0509
 20
16.7817
 30
0.0
 11
38.0517
 21
16.7817
 31
0.0
  0
LINE
  8
0
 62
     0
 10
38.0517
 20
16.7817
 30
0.0
 11
38.0517
 21
2.78226
 31
0.0
  0
LINE
  8
0
 62
     0
 10
38.0517
 20
2.78226
 30
0.0
 11
24.0509
 21
2.78226
 31
0.0
  0
LINE
  8
0
 62
     0
 10
24.0509
 20
2.78226
 30
0.0
 11
24.0509
 21
16.7817
 31
0.0
  0
LINE
  8
0
 62
     0
 10
50.2461
 20
16.7817
 30
0.0
 11
64.2454
 21
16.7817
 31
0.0
  0
LINE
  8
0
 62
     0
 10
64.2454
 20
16.7817
 30
0.0
 11
64.2454
 21
2.78226
 31
0.0
  0
LINE
  8
0
 62
     0
 10
64.2454
 20
2.78226
 30
0.0
 11
50.2461
 21
2.78226
 31
0.0
  0
LINE
  8
0
 62
     0
 10
50.2461
 20
2.78226
 30
0.0
 11
50.2461
 21
16.7817
 31
0.0
  0
LINE
  8
0
 62
     0
 10
193.121
 20
16.7817
 30
0.0
 11
207.12
 21
16.7817
 31
0.0
  0
LINE
  8
0
 62
     0
 10
207.12
 20
16.7817
 30
0.0
 11
207.12
 21
2.78226
 31
0.0
  0
LINE
  8
0
 62
     0
 10
207.12
 20
2.78226
 30
0.0
 11
193.121
 21
2.78226
 31
0.0
  0
LINE
  8
0
 62
     0
 10
193.121
 20
2.78226
 30
0.0
 11
193.121
 21
16.7817
 31
0.0
  0
LINE
  8
0
 62
     0
 10
212.171
 20
16.7817
 30
0.0
 11
226.17
 21
16.7817
 31
0.0
  0
LINE
  8
0
 62
     0
 10
226.17
 20
16.7817
 30
0.0
 11
226.17
 21
2.78226
 31
0.0
  0
LINE
  8
0
 62
     0
 10
226.17
 20
2.78226
 30
0.0
 11
212.171
 21
2.78226
 31
0.0
  0
LINE
  8
0
 62
     0
 10
212.171
 20
2.78226
 30
0.0
 11
212.171
 21
16.7817
 31
0.0
  0
LINE
  8
0
 62
     0
 10
231.221
 20
16.7817
 30
0.0
 11
245.22
 21
16.7817
 31
0.0
  0
LINE
  8
0
 62
     0
 10
245.22
 20
16.7817
 30
0.0
 11
245.22
 21
2.78226
 31
0.0
  0
LINE
  8
0
 62
     0
 10
245.22
 20
2.78226
 30
0.0
 11
231.221
 21
2.78226
 31
0.0
  0
LINE
  8
0
 62
     0
 10
231.221
 20
2.78226
 30
0.0
 11
231.221
 21
16.7817
 31
0.0
  0
LINE
  8
0
 62
     0
 10
250.271
 20
16.7817
 30
0.0
 11
264.27
 21
16.7817
 31
0.0
  0
LINE
  8
0
 62
     0
 10
264.27
 20
16.7817
 30
0.0
 11
264.27
 21
2.78226
 31
0.0
  0
LINE
  8
0
 62
     0
 10
264.27
 20
2.78226
 30
0.0
 11
250.271
 21
2.78226
 31
0.0
  0
LINE
  8
0
 62
     0
 10
250.271
 20
2.78226
 30
0.0
 11
250.271
 21
16.7817
 31
0.0
  0
LINE
  8
0
 62
     0
 10
269.321
 20
16.7817
 30
0.0
 11
283.32
 21
16.7817
 31
0.0
  0
LINE
  8
0
 62
     0
 10
283.32
 20
16.7817
 30
0.0
 11
283.32
 21
2.78226
 31
0.0
  0
LINE
  8
0
 62
     0
 10
283.32
 20
2.78226
 30
0.0
 11
269.321
 21
2.78226
 31
0.0
  0
LINE
  8
0
 62
     0
 10
269.321
 20
2.78226
 30
0.0
 11
269.321
 21
16.7817
 31
0.0
  0
LINE
  8
0
 62
     0
 10
345.521
 20
16.7817
 30
0.0
 11
359.519
 21
16.7817
 31
0.0
  0
LINE
  8
0
 62
     0
 10
359.519
 20
16.7817
 30
0.0
 11
359.519
 21
2.78226
 31
0.0
  0
LINE
  8
0
 62
     0
 10
359.519
 20
2.78226
 30
0.0
 11
345.521
 21
2.78226
 31
0.0
  0
LINE
  8
0
 62
     0
 10
345.521
 20
2.78226
 30
0.0
 11
345.521
 21
16.7817
 31
0.0
  0
LINE
  8
0
 62
     0
 10
371.069
 20
35.4087
 30
0.0
 11
371.069
 21
34.5819
 31
0.0
  0
LINE
  8
0
 62
     0
 10
371.069
 20
34.5819
 30
0.0
 11
364.8
 21
34.5819
 31
0.0
  0
LINE
  8
0
 62
     0
 10
364.8
 20
34.5819
 30
0.0
 11
364.8
 21
32.8579
 31
0.0
  0
LINE
  8
0
 62
     0
 10
364.8
 20
32.8579
 30
0.0
 11
363.601
 21
32.8579
 31
0.0
  0
LINE
  8
0
 62
     0
 10
363.601
 20
32.8579
 30
0.0
 11
363.601
 21
29.5576
 31
0.0
  0
LINE
  8
0
 62
     0
 10
363.601
 20
29.5576
 30
0.0
 11
364.8
 21
29.5576
 31
0.0
  0
LINE
  8
0
 62
     0
 10
364.8
 20
29.5576
 30
0.0
 11
364.8
 21
27.8322
 31
0.0
  0
LINE
  8
0
 62
     0
 10
364.8
 20
27.8322
 30
0.0
 11
369.27
 21
27.8322
 31
0.0
  0
LINE
  8
0
 62
     0
 10
369.27
 20
27.8322
 30
0.0
 11
369.27
 21
26.3067
 31
0.0
  0
LINE
  8
0
 62
     0
 10
369.27
 20
26.3067
 30
0.0
 11
364.571
 21
26.3067
 31
0.0
  0
LINE
  8
0
 62
     0
 10
364.571
 20
26.3067
 30
0.0
 11
364.571
 21
12.3073
 31
0.0
  0
LINE
  8
0
 62
     0
 10
364.571
 20
12.3073
 30
0.0
 11
369.27
 21
12.3073
 31
0.0
  0
LINE
  8
0
 62
     0
 10
369.27
 20
12.3073
 30
0.0
 11
369.27
 21
10.7818
 31
0.0
  0
LINE
  8
0
 62
     0
 10
369.27
 20
10.7818
 30
0.0
 11
364.8
 21
10.7818
 31
0.0
  0
LINE
  8
0
 62
     0
 10
364.8
 20
10.7818
 30
0.0
 11
364.8
 21
9.05785
 31
0.0
  0
LINE
  8
0
 62
     0
 10
364.8
 20
9.05785
 30
0.0
 11
363.601
 21
9.05785
 31
0.0
  0
LINE
  8
0
 62
     0
 10
363.601
 20
9.05785
 30
0.0
 11
363.601
 21
5.75744
 31
0.0
  0
LINE
  8
0
 62
     0
 10
363.601
 20
5.75744
 30
0.0
 11
364.8
 21
5.75744
 31
0.0
  0
LINE
  8
0
 62
     0
 10
364.8
 20
5.75744
 30
0.0
 11
364.8
 21
4.03214
 31
0.0
  0
LINE
  8
0
 62
     0
 10
364.8
 20
4.03214
 30
0.0
 11
371.069
 21
4.03214
 31
0.0
  0
LINE
  8
0
 62
     0
 10
371.069
 20
4.03214
 30
0.0
 11
371.069
 21
3.20669
 31
0.0
  0
LINE
  8
0
 62
     0
 10
371.069
 20
3.20669
 30
0.0
 11
373.87
 21
3.20669
 31
0.0
  0
LINE
  8
0
 62
     0
 10
373.87
 20
3.20669
 30
0.0
 11
373.87
 21
4.03214
 31
0.0
  0
LINE
  8
0
 62
     0
 10
373.87
 20
4.03214
 30
0.0
 11
377.102
 21
4.03214
 31
0.0
  0
LINE
  8
0
 62
     0
 10
377.102
 20
4.03214
 30
0.0
 11
377.102
 21
10.7818
 31
0.0
  0
LINE
  8
0
 62
     0
 10
377.102
 20
10.7818
 30
0.0
 11
373.87
 21
10.7818
 31
0.0
  0
LINE
  8
0
 62
     0
 10
373.87
 20
10.7818
 30
0.0
 11
373.87
 21
12.3073
 31
0.0
  0
LINE
  8
0
 62
     0
 10
373.87
 20
12.3073
 30
0.0
 11
378.569
 21
12.3073
 31
0.0
  0
LINE
  8
0
 62
     0
 10
378.569
 20
12.3073
 30
0.0
 11
378.569
 21
26.3067
 31
0.0
  0
LINE
  8
0
 62
     0
 10
378.569
 20
26.3067
 30
0.0
 11
373.87
 21
26.3067
 31
0.0
  0
LINE
  8
0
 62
     0
 10
373.87
 20
26.3067
 30
0.0
 11
373.87
 21
27.8322
 31
0.0
  0
LINE
  8
0
 62
     0
 10
373.87
 20
27.8322
 30
0.0
 11
377.102
 21
27.8322
 31
0.0
  0
LINE
  8
0
 62
     0
 10
377.102
 20
27.8322
 30
0.0
 11
377.102
 21
34.5819
 31
0.0
  0
LINE
  8
0
 62
     0
 10
377.102
 20
34.5819
 30
0.0
 11
373.87
 21
34.5819
 31
0.0
  0
LINE
  8
0
 62
     0
 10
373.87
 20
34.5819
 30
0.0
 11
373.87
 21
35.4087
 31
0.0
  0
LINE
  8
0
 62
     0
 10
373.87
 20
35.4087
 30
0.0
 11
371.069
 21
35.4087
 31
0.0
  0
LINE
  8
0
 62
     0
 10
14.5259
 20
35.8316
 30
0.0
 11
14.5259
 21
31.1326
 31
0.0
  0
LINE
  8
0
 62
     0
 10
14.5259
 20
31.1326
 30
0.0
 11
13.0018
 21
31.1326
 31
0.0
  0
LINE
  8
0
 62
     0
 10
13.0018
 20
31.1326
 30
0.0
 11
13.0018
 21
34.3628
 31
0.0
  0
LINE
  8
0
 62
     0
 10
13.0018
 20
34.3628
 30
0.0
 11
6.25217
 21
34.3628
 31
0.0
  0
LINE
  8
0
 62
     0
 10
6.25217
 20
34.3628
 30
0.0
 11
6.25217
 21
31.1326
 31
0.0
  0
LINE
  8
0
 62
     0
 10
6.25217
 20
31.1326
 30
0.0
 11
5.42671
 21
31.1326
 31
0.0
  0
LINE
  8
0
 62
     0
 10
5.42671
 20
31.1326
 30
0.0
 11
5.42671
 21
28.3325
 31
0.0
  0
LINE
  8
0
 62
     0
 10
5.42671
 20
28.3325
 30
0.0
 11
6.25217
 21
28.3325
 31
0.0
  0
LINE
  8
0
 62
     0
 10
6.25217
 20
28.3325
 30
0.0
 11
6.25217
 21
22.0624
 31
0.0
  0
LINE
  8
0
 62
     0
 10
6.25217
 20
22.0624
 30
0.0
 11
7.97609
 21
22.0624
 31
0.0
  0
LINE
  8
0
 62
     0
 10
7.97609
 20
22.0624
 30
0.0
 11
7.97609
 21
20.8621
 31
0.0
  0
LINE
  8
0
 62
     0
 10
7.97609
 20
20.8621
 30
0.0
 11
11.2765
 21
20.8621
 31
0.0
  0
LINE
  8
0
 62
     0
 10
11.2765
 20
20.8621
 30
0.0
 11
11.2765
 21
22.0624
 31
0.0
  0
LINE
  8
0
 62
     0
 10
11.2765
 20
22.0624
 30
0.0
 11
13.0018
 21
22.0624
 31
0.0
  0
LINE
  8
0
 62
     0
 10
13.0018
 20
22.0624
 30
0.0
 11
13.0018
 21
26.5327
 31
0.0
  0
LINE
  8
0
 62
     0
 10
13.0018
 20
26.5327
 30
0.0
 11
14.5259
 21
26.5327
 31
0.0
  0
LINE
  8
0
 62
     0
 10
14.5259
 20
26.5327
 30
0.0
 11
14.5259
 21
21.8323
 31
0.0
  0
LINE
  8
0
 62
     0
 10
14.5259
 20
21.8323
 30
0.0
 11
28.5268
 21
21.8323
 31
0.0
  0
LINE
  8
0
 62
     0
 10
28.5268
 20
21.8323
 30
0.0
 11
28.5268
 21
26.5327
 31
0.0
  0
LINE
  8
0
 62
     0
 10
28.5268
 20
26.5327
 30
0.0
 11
30.0509
 21
26.5327
 31
0.0
  0
LINE
  8
0
 62
     0
 10
30.0509
 20
26.5327
 30
0.0
 11
30.0509
 21
22.0624
 31
0.0
  0
LINE
  8
0
 62
     0
 10
30.0509
 20
22.0624
 30
0.0
 11
31.7762
 21
22.0624
 31
0.0
  0
LINE
  8
0
 62
     0
 10
31.7762
 20
22.0624
 30
0.0
 11
31.7762
 21
20.8621
 31
0.0
  0
LINE
  8
0
 62
     0
 10
31.7762
 20
20.8621
 30
0.0
 11
35.0766
 21
20.8621
 31
0.0
  0
LINE
  8
0
 62
     0
 10
35.0766
 20
20.8621
 30
0.0
 11
35.0766
 21
22.0624
 31
0.0
  0
LINE
  8
0
 62
     0
 10
35.0766
 20
22.0624
 30
0.0
 11
36.8018
 21
22.0624
 31
0.0
  0
LINE
  8
0
 62
     0
 10
36.8018
 20
22.0624
 30
0.0
 11
36.8018
 21
28.3325
 31
0.0
  0
LINE
  8
0
 62
     0
 10
36.8018
 20
28.3325
 30
0.0
 11
37.6259
 21
28.3325
 31
0.0
  0
LINE
  8
0
 62
     0
 10
37.6259
 20
28.3325
 30
0.0
 11
37.6259
 21
31.1326
 31
0.0
  0
LINE
  8
0
 62
     0
 10
37.6259
 20
31.1326
 30
0.0
 11
36.8018
 21
31.1326
 31
0.0
  0
LINE
  8
0
 62
     0
 10
36.8018
 20
31.1326
 30
0.0
 11
36.8018
 21
34.3628
 31
0.0
  0
LINE
  8
0
 62
     0
 10
36.8018
 20
34.3628
 30
0.0
 11
30.0509
 21
34.3628
 31
0.0
  0
LINE
  8
0
 62
     0
 10
30.0509
 20
34.3628
 30
0.0
 11
30.0509
 21
31.1326
 31
0.0
  0
LINE
  8
0
 62
     0
 10
30.0509
 20
31.1326
 30
0.0
 11
28.5268
 21
31.1326
 31
0.0
  0
LINE
  8
0
 62
     0
 10
28.5268
 20
31.1326
 30
0.0
 11
28.5268
 21
35.8316
 31
0.0
  0
LINE
  8
0
 62
     0
 10
28.5268
 20
35.8316
 30
0.0
 11
14.5259
 21
35.8316
 31
0.0
  0
LINE
  8
0
 62
     0
 10
252.651
 20
35.8316
 30
0.0
 11
252.651
 21
31.1326
 31
0.0
  0
LINE
  8
0
 62
     0
 10
252.651
 20
31.1326
 30
0.0
 11
251.127
 21
31.1326
 31
0.0
  0
LINE
  8
0
 62
     0
 10
251.127
 20
31.1326
 30
0.0
 11
251.127
 21
34.3628
 31
0.0
  0
LINE
  8
0
 62
     0
 10
251.127
 20
34.3628
 30
0.0
 11
244.377
 21
34.3628
 31
0.0
  0
LINE
  8
0
 62
     0
 10
244.377
 20
34.3628
 30
0.0
 11
244.377
 21
31.1326
 31
0.0
  0
LINE
  8
0
 62
     0
 10
244.377
 20
31.1326
 30
0.0
 11
243.552
 21
31.1326
 31
0.0
  0
LINE
  8
0
 62
     0
 10
243.552
 20
31.1326
 30
0.0
 11
243.552
 21
28.3325
 31
0.0
  0
LINE
  8
0
 62
     0
 10
243.552
 20
28.3325
 30
0.0
 11
244.377
 21
28.3325
 31
0.0
  0
LINE
  8
0
 62
     0
 10
244.377
 20
28.3325
 30
0.0
 11
244.377
 21
22.0624
 31
0.0
  0
LINE
  8
0
 62
     0
 10
244.377
 20
22.0624
 30
0.0
 11
246.101
 21
22.0624
 31
0.0
  0
LINE
  8
0
 62
     0
 10
246.101
 20
22.0624
 30
0.0
 11
246.101
 21
20.8621
 31
0.0
  0
LINE
  8
0
 62
     0
 10
246.101
 20
20.8621
 30
0.0
 11
249.402
 21
20.8621
 31
0.0
  0
LINE
  8
0
 62
     0
 10
249.402
 20
20.8621
 30
0.0
 11
249.402
 21
22.0624
 31
0.0
  0
LINE
  8
0
 62
     0
 10
249.402
 20
22.0624
 30
0.0
 11
251.127
 21
22.0624
 31
0.0
  0
LINE
  8
0
 62
     0
 10
251.127
 20
22.0624
 30
0.0
 11
251.127
 21
26.5327
 31
0.0
  0
LINE
  8
0
 62
     0
 10
251.127
 20
26.5327
 30
0.0
 11
252.651
 21
26.5327
 31
0.0
  0
LINE
  8
0
 62
     0
 10
252.651
 20
26.5327
 30
0.0
 11
252.651
 21
21.8323
 31
0.0
  0
LINE
  8
0
 62
     0
 10
252.651
 20
21.8323
 30
0.0
 11
266.652
 21
21.8323
 31
0.0
  0
LINE
  8
0
 62
     0
 10
266.652
 20
21.8323
 30
0.0
 11
266.652
 21
26.5327
 31
0.0
  0
LINE
  8
0
 62
     0
 10
266.652
 20
26.5327
 30
0.0
 11
268.176
 21
26.5327
 31
0.0
  0
LINE
  8
0
 62
     0
 10
268.176
 20
26.5327
 30
0.0
 11
268.176
 21
22.0624
 31
0.0
  0
LINE
  8
0
 62
     0
 10
268.176
 20
22.0624
 30
0.0
 11
269.901
 21
22.0624
 31
0.0
  0
LINE
  8
0
 62
     0
 10
269.901
 20
22.0624
 30
0.0
 11
269.901
 21
20.8621
 31
0.0
  0
LINE
  8
0
 62
     0
 10
269.901
 20
20.8621
 30
0.0
 11
273.202
 21
20.8621
 31
0.0
  0
LINE
  8
0
 62
     0
 10
273.202
 20
20.8621
 30
0.0
 11
273.202
 21
22.0624
 31
0.0
  0
LINE
  8
0
 62
     0
 10
273.202
 20
22.0624
 30
0.0
 11
274.927
 21
22.0624
 31
0.0
  0
LINE
  8
0
 62
     0
 10
274.927
 20
22.0624
 30
0.0
 11
274.927
 21
28.3325
 31
0.0
  0
LINE
  8
0
 62
     0
 10
274.927
 20
28.3325
 30
0.0
 11
275.751
 21
28.3325
 31
0.0
  0
LINE
  8
0
 62
     0
 10
275.751
 20
28.3325
 30
0.0
 11
275.751
 21
31.1326
 31
0.0
  0
LINE
  8
0
 62
     0
 10
275.751
 20
31.1326
 30
0.0
 11
274.927
 21
31.1326
 31
0.0
  0
LINE
  8
0
 62
     0
 10
274.927
 20
31.1326
 30
0.0
 11
274.927
 21
34.3628
 31
0.0
  0
LINE
  8
0
 62
     0
 10
274.927
 20
34.3628
 30
0.0
 11
268.176
 21
34.3628
 31
0.0
  0
LINE
  8
0
 62
     0
 10
268.176
 20
34.3628
 30
0.0
 11
268.176
 21
31.1326
 31
0.0
  0
LINE
  8
0
 62
     0
 10
268.176
 20
31.1326
 30
0.0
 11
266.652
 21
31.1326
 31
0.0
  0
LINE
  8
0
 62
     0
 10
266.652
 20
31.1326
 30
0.0
 11
266.652
 21
35.8316
 31
0.0
  0
LINE
  8
0
 62
     0
 10
266.652
 20
35.8316
 30
0.0
 11
252.651
 21
35.8316
 31
0.0
  0
LINE
  8
0
 62
     0
 10
45.4822
 20
35.8316
 30
0.0
 11
59.4829
 21
35.8316
 31
0.0
  0
LINE
  8
0
 62
     0
 10
59.4829
 20
35.8316
 30
0.0
 11
59.4829
 21
21.8323
 31
0.0
  0
LINE
  8
0
 62
     0
 10
59.4829
 20
21.8323
 30
0.0
 11
45.4822
 21
21.8323
 31
0.0
  0
LINE
  8
0
 62
     0
 10
45.4822
 20
21.8323
 30
0.0
 11
45.4822
 21
35.8316
 31
0.0
  0
LINE
  8
0
 62
     0
 10
64.5322
 20
35.8316
 30
0.0
 11
78.5329
 21
35.8316
 31
0.0
  0
LINE
  8
0
 62
     0
 10
78.5329
 20
35.8316
 30
0.0
 11
78.5329
 21
21.8323
 31
0.0
  0
LINE
  8
0
 62
     0
 10
78.5329
 20
21.8323
 30
0.0
 11
64.5322
 21
21.8323
 31
0.0
  0
LINE
  8
0
 62
     0
 10
64.5322
 20
21.8323
 30
0.0
 11
64.5322
 21
35.8316
 31
0.0
  0
LINE
  8
0
 62
     0
 10
83.5822
 20
35.8316
 30
0.0
 11
97.5829
 21
35.8316
 31
0.0
  0
LINE
  8
0
 62
     0
 10
97.5829
 20
35.8316
 30
0.0
 11
97.5829
 21
21.8323
 31
0.0
  0
LINE
  8
0
 62
     0
 10
97.5829
 20
21.8323
 30
0.0
 11
83.5822
 21
21.8323
 31
0.0
  0
LINE
  8
0
 62
     0
 10
83.5822
 20
21.8323
 30
0.0
 11
83.5822
 21
35.8316
 31
0.0
  0
LINE
  8
0
 62
     0
 10
102.632
 20
35.8316
 30
0.0
 11
116.633
 21
35.8316
 31
0.0
  0
LINE
  8
0
 62
     0
 10
116.633
 20
35.8316
 30
0.0
 11
116.633
 21
21.8323
 31
0.0
  0
LINE
  8
0
 62
     0
 10
116.633
 20
21.8323
 30
0.0
 11
102.632
 21
21.8323
 31
0.0
  0
LINE
  8
0
 62
     0
 10
102.632
 20
21.8323
 30
0.0
 11
102.632
 21
35.8316
 31
0.0
  0
LINE
  8
0
 62
     0
 10
121.682
 20
35.8316
 30
0.0
 11
135.683
 21
35.8316
 31
0.0
  0
LINE
  8
0
 62
     0
 10
135.683
 20
35.8316
 30
0.0
 11
135.683
 21
21.8323
 31
0.0
  0
LINE
  8
0
 62
     0
 10
135.683
 20
21.8323
 30
0.0
 11
121.682
 21
21.8323
 31
0.0
  0
LINE
  8
0
 62
     0
 10
121.682
 20
21.8323
 30
0.0
 11
121.682
 21
35.8316
 31
0.0
  0
LINE
  8
0
 62
     0
 10
140.732
 20
35.8316
 30
0.0
 11
154.733
 21
35.8316
 31
0.0
  0
LINE
  8
0
 62
     0
 10
154.733
 20
35.8316
 30
0.0
 11
154.733
 21
21.8323
 31
0.0
  0
LINE
  8
0
 62
     0
 10
154.733
 20
21.8323
 30
0.0
 11
140.732
 21
21.8323
 31
0.0
  0
LINE
  8
0
 62
     0
 10
140.732
 20
21.8323
 30
0.0
 11
140.732
 21
35.8316
 31
0.0
  0
LINE
  8
0
 62
     0
 10
159.782
 20
35.8316
 30
0.0
 11
173.783
 21
35.8316
 31
0.0
  0
LINE
  8
0
 62
     0
 10
173.783
 20
35.8316
 30
0.0
 11
173.783
 21
21.8323
 31
0.0
  0
LINE
  8
0
 62
     0
 10
173.783
 20
21.8323
 30
0.0
 11
159.782
 21
21.8323
 31
0.0
  0
LINE
  8
0
 62
     0
 10
159.782
 20
21.8323
 30
0.0
 11
159.782
 21
35.8316
 31
0.0
  0
LINE
  8
0
 62
     0
 10
178.832
 20
35.8316
 30
0.0
 11
192.833
 21
35.8316
 31
0.0
  0
LINE
  8
0
 62
     0
 10
192.833
 20
35.8316
 30
0.0
 11
192.833
 21
21.8323
 31
0.0
  0
LINE
  8
0
 62
     0
 10
192.833
 20
21.8323
 30
0.0
 11
178.832
 21
21.8323
 31
0.0
  0
LINE
  8
0
 62
     0
 10
178.832
 20
21.8323
 30
0.0
 11
178.832
 21
35.8316
 31
0.0
  0
LINE
  8
0
 62
     0
 10
197.882
 20
35.8316
 30
0.0
 11
211.883
 21
35.8316
 31
0.0
  0
LINE
  8
0
 62
     0
 10
211.883
 20
35.8316
 30
0.0
 11
211.883
 21
21.8323
 31
0.0
  0
LINE
  8
0
 62
     0
 10
211.883
 20
21.8323
 30
0.0
 11
197.882
 21
21.8323
 31
0.0
  0
LINE
  8
0
 62
     0
 10
197.882
 20
21.8323
 30
0.0
 11
197.882
 21
35.8316
 31
0.0
  0
LINE
  8
0
 62
     0
 10
216.932
 20
35.8316
 30
0.0
 11
230.933
 21
35.8316
 31
0.0
  0
LINE
  8
0
 62
     0
 10
230.933
 20
35.8316
 30
0.0
 11
230.933
 21
21.8323
 31
0.0
  0
LINE
  8
0
 62
     0
 10
230.933
 20
21.8323
 30
0.0
 11
216.932
 21
21.8323
 31
0.0
  0
LINE
  8
0
 62
     0
 10
216.932
 20
21.8323
 30
0.0
 11
216.932
 21
35.8316
 31
0.0
  0
LINE
  8
0
 62
     0
 10
307.421
 20
35.8316
 30
0.0
 11
321.42
 21
35.8316
 31
0.0
  0
LINE
  8
0
 62
     0
 10
321.42
 20
35.8316
 30
0.0
 11
321.42
 21
21.8323
 31
0.0
  0
LINE
  8
0
 62
     0
 10
321.42
 20
21.8323
 30
0.0
 11
307.421
 21
21.8323
 31
0.0
  0
LINE
  8
0
 62
     0
 10
307.421
 20
21.8323
 30
0.0
 11
307.421
 21
35.8316
 31
0.0
  0
LINE
  8
0
 62
     0
 10
326.471
 20
35.8316
 30
0.0
 11
340.47
 21
35.8316
 31
0.0
  0
LINE
  8
0
 62
     0
 10
340.47
 20
35.8316
 30
0.0
 11
340.47
 21
21.8323
 31
0.0
  0
LINE
  8
0
 62
     0
 10
340.47
 20
21.8323
 30
0.0
 11
326.471
 21
21.8323
 31
0.0
  0
LINE
  8
0
 62
     0
 10
326.471
 20
21.8323
 30
0.0
 11
326.471
 21
35.8316
 31
0.0
  0
LINE
  8
0
 62
     0
 10
345.521
 20
35.8316
 30
0.0
 11
359.519
 21
35.8316
 31
0.0
  0
LINE
  8
0
 62
     0
 10
359.519
 20
35.8316
 30
0.0
 11
359.519
 21
21.8323
 31
0.0
  0
LINE
  8
0
 62
     0
 10
359.519
 20
21.8323
 30
0.0
 11
345.521
 21
21.8323
 31
0.0
  0
LINE
  8
0
 62
     0
 10
345.521
 20
21.8323
 30
0.0
 11
345.521
 21
35.8316
 31
0.0
  0
LINE
  8
0
 62
     0
 10
257.413
 20
54.8816
 30
0.0
 11
257.413
 21
50.1826
 31
0.0
  0
LINE
  8
0
 62
     0
 10
257.413
 20
50.1826
 30
0.0
 11
255.888
 21
50.1826
 31
0.0
  0
LINE
  8
0
 62
     0
 10
255.888
 20
50.1826
 30
0.0
 11
255.888
 21
53.4127
 31
0.0
  0
LINE
  8
0
 62
     0
 10
255.888
 20
53.4127
 30
0.0
 11
249.138
 21
53.4127
 31
0.0
  0
LINE
  8
0
 62
     0
 10
249.138
 20
53.4127
 30
0.0
 11
249.138
 21
50.1826
 31
0.0
  0
LINE
  8
0
 62
     0
 10
249.138
 20
50.1826
 30
0.0
 11
248.313
 21
50.1826
 31
0.0
  0
LINE
  8
0
 62
     0
 10
248.313
 20
50.1826
 30
0.0
 11
248.313
 21
47.3826
 31
0.0
  0
LINE
  8
0
 62
     0
 10
248.313
 20
47.3826
 30
0.0
 11
249.138
 21
47.3826
 31
0.0
  0
LINE
  8
0
 62
     0
 10
249.138
 20
47.3826
 30
0.0
 11
249.138
 21
41.1138
 31
0.0
  0
LINE
  8
0
 62
     0
 10
249.138
 20
41.1138
 30
0.0
 11
250.863
 21
41.1138
 31
0.0
  0
LINE
  8
0
 62
     0
 10
250.863
 20
41.1138
 30
0.0
 11
250.863
 21
39.9122
 31
0.0
  0
LINE
  8
0
 62
     0
 10
250.863
 20
39.9122
 30
0.0
 11
254.163
 21
39.9122
 31
0.0
  0
LINE
  8
0
 62
     0
 10
254.163
 20
39.9122
 30
0.0
 11
254.163
 21
41.1138
 31
0.0
  0
LINE
  8
0
 62
     0
 10
254.163
 20
41.1138
 30
0.0
 11
255.888
 21
41.1138
 31
0.0
  0
LINE
  8
0
 62
     0
 10
255.888
 20
41.1138
 30
0.0
 11
255.888
 21
45.5828
 31
0.0
  0
LINE
  8
0
 62
     0
 10
255.888
 20
45.5828
 30
0.0
 11
257.413
 21
45.5828
 31
0.0
  0
LINE
  8
0
 62
     0
 10
257.413
 20
45.5828
 30
0.0
 11
257.413
 21
40.8824
 31
0.0
  0
LINE
  8
0
 62
     0
 10
257.413
 20
40.8824
 30
0.0
 11
271.413
 21
40.8824
 31
0.0
  0
LINE
  8
0
 62
     0
 10
271.413
 20
40.8824
 30
0.0
 11
271.413
 21
45.5828
 31
0.0
  0
LINE
  8
0
 62
     0
 10
271.413
 20
45.5828
 30
0.0
 11
272.939
 21
45.5828
 31
0.0
  0
LINE
  8
0
 62
     0
 10
272.939
 20
45.5828
 30
0.0
 11
272.939
 21
41.1138
 31
0.0
  0
LINE
  8
0
 62
     0
 10
272.939
 20
41.1138
 30
0.0
 11
274.664
 21
41.1138
 31
0.0
  0
LINE
  8
0
 62
     0
 10
274.664
 20
41.1138
 30
0.0
 11
274.664
 21
39.9122
 31
0.0
  0
LINE
  8
0
 62
     0
 10
274.664
 20
39.9122
 30
0.0
 11
277.964
 21
39.9122
 31
0.0
  0
LINE
  8
0
 62
     0
 10
277.964
 20
39.9122
 30
0.0
 11
277.964
 21
41.1138
 31
0.0
  0
LINE
  8
0
 62
     0
 10
277.964
 20
41.1138
 30
0.0
 11
279.688
 21
41.1138
 31
0.0
  0
LINE
  8
0
 62
     0
 10
279.688
 20
41.1138
 30
0.0
 11
279.688
 21
47.3826
 31
0.0
  0
LINE
  8
0
 62
     0
 10
279.688
 20
47.3826
 30
0.0
 11
280.513
 21
47.3826
 31
0.0
  0
LINE
  8
0
 62
     0
 10
280.513
 20
47.3826
 30
0.0
 11
280.513
 21
50.1826
 31
0.0
  0
LINE
  8
0
 62
     0
 10
280.513
 20
50.1826
 30
0.0
 11
279.688
 21
50.1826
 31
0.0
  0
LINE
  8
0
 62
     0
 10
279.688
 20
50.1826
 30
0.0
 11
279.688
 21
53.4127
 31
0.0
  0
LINE
  8
0
 62
     0
 10
279.688
 20
53.4127
 30
0.0
 11
272.939
 21
53.4127
 31
0.0
  0
LINE
  8
0
 62
     0
 10
272.939
 20
53.4127
 30
0.0
 11
272.939
 21
50.1826
 31
0.0
  0
LINE
  8
0
 62
     0
 10
272.939
 20
50.1826
 30
0.0
 11
271.413
 21
50.1826
 31
0.0
  0
LINE
  8
0
 62
     0
 10
271.413
 20
50.1826
 30
0.0
 11
271.413
 21
54.8816
 31
0.0
  0
LINE
  8
0
 62
     0
 10
271.413
 20
54.8816
 30
0.0
 11
257.413
 21
54.8816
 31
0.0
  0
LINE
  8
0
 62
     0
 10
9.76341
 20
54.8816
 30
0.0
 11
23.7629
 21
54.8816
 31
0.0
  0
LINE
  8
0
 62
     0
 10
23.7629
 20
54.8816
 30
0.0
 11
23.7629
 21
40.8824
 31
0.0
  0
LINE
  8
0
 62
     0
 10
23.7629
 20
40.8824
 30
0.0
 11
9.76341
 21
40.8824
 31
0.0
  0
LINE
  8
0
 62
     0
 10
9.76341
 20
40.8824
 30
0.0
 11
9.76341
 21
54.8816
 31
0.0
  0
LINE
  8
0
 62
     0
 10
35.9572
 20
54.8816
 30
0.0
 11
49.9579
 21
54.8816
 31
0.0
  0
LINE
  8
0
 62
     0
 10
49.9579
 20
54.8816
 30
0.0
 11
49.9579
 21
40.8824
 31
0.0
  0
LINE
  8
0
 62
     0
 10
49.9579
 20
40.8824
 30
0.0
 11
35.9572
 21
40.8824
 31
0.0
  0
LINE
  8
0
 62
     0
 10
35.9572
 20
40.8824
 30
0.0
 11
35.9572
 21
54.8816
 31
0.0
  0
LINE
  8
0
 62
     0
 10
55.0072
 20
54.8816
 30
0.0
 11
69.0079
 21
54.8816
 31
0.0
  0
LINE
  8
0
 62
     0
 10
69.0079
 20
54.8816
 30
0.0
 11
69.0079
 21
40.8824
 31
0.0
  0
LINE
  8
0
 62
     0
 10
69.0079
 20
40.8824
 30
0.0
 11
55.0072
 21
40.8824
 31
0.0
  0
LINE
  8
0
 62
     0
 10
55.0072
 20
40.8824
 30
0.0
 11
55.0072
 21
54.8816
 31
0.0
  0
LINE
  8
0
 62
     0
 10
74.0572
 20
54.8816
 30
0.0
 11
88.0579
 21
54.8816
 31
0.0
  0
LINE
  8
0
 62
     0
 10
88.0579
 20
54.8816
 30
0.0
 11
88.0579
 21
40.8824
 31
0.0
  0
LINE
  8
0
 62
     0
 10
88.0579
 20
40.8824
 30
0.0
 11
74.0572
 21
40.8824
 31
0.0
  0
LINE
  8
0
 62
     0
 10
74.0572
 20
40.8824
 30
0.0
 11
74.0572
 21
54.8816
 31
0.0
  0
LINE
  8
0
 62
     0
 10
93.1072
 20
54.8816
 30
0.0
 11
107.108
 21
54.8816
 31
0.0
  0
LINE
  8
0
 62
     0
 10
107.108
 20
54.8816
 30
0.0
 11
107.108
 21
40.8824
 31
0.0
  0
LINE
  8
0
 62
     0
 10
107.108
 20
40.8824
 30
0.0
 11
93.1072
 21
40.8824
 31
0.0
  0
LINE
  8
0
 62
     0
 10
93.1072
 20
40.8824
 30
0.0
 11
93.1072
 21
54.8816
 31
0.0
  0
LINE
  8
0
 62
     0
 10
112.157
 20
54.8816
 30
0.0
 11
126.158
 21
54.8816
 31
0.0
  0
LINE
  8
0
 62
     0
 10
126.158
 20
54.8816
 30
0.0
 11
126.158
 21
40.8824
 31
0.0
  0
LINE
  8
0
 62
     0
 10
126.158
 20
40.8824
 30
0.0
 11
112.157
 21
40.8824
 31
0.0
  0
LINE
  8
0
 62
     0
 10
112.157
 20
40.8824
 30
0.0
 11
112.157
 21
54.8816
 31
0.0
  0
LINE
  8
0
 62
     0
 10
131.207
 20
54.8816
 30
0.0
 11
145.208
 21
54.8816
 31
0.0
  0
LINE
  8
0
 62
     0
 10
145.208
 20
54.8816
 30
0.0
 11
145.208
 21
40.8824
 31
0.0
  0
LINE
  8
0
 62
     0
 10
145.208
 20
40.8824
 30
0.0
 11
131.207
 21
40.8824
 31
0.0
  0
LINE
  8
0
 62
     0
 10
131.207
 20
40.8824
 30
0.0
 11
131.207
 21
54.8816
 31
0.0
  0
LINE
  8
0
 62
     0
 10
150.257
 20
54.8816
 30
0.0
 11
164.258
 21
54.8816
 31
0.0
  0
LINE
  8
0
 62
     0
 10
164.258
 20
54.8816
 30
0.0
 11
164.258
 21
40.8824
 31
0.0
  0
LINE
  8
0
 62
     0
 10
164.258
 20
40.8824
 30
0.0
 11
150.257
 21
40.8824
 31
0.0
  0
LINE
  8
0
 62
     0
 10
150.257
 20
40.8824
 30
0.0
 11
150.257
 21
54.8816
 31
0.0
  0
LINE
  8
0
 62
     0
 10
169.307
 20
54.8816
 30
0.0
 11
183.308
 21
54.8816
 31
0.0
  0
LINE
  8
0
 62
     0
 10
183.308
 20
54.8816
 30
0.0
 11
183.308
 21
40.8824
 31
0.0
  0
LINE
  8
0
 62
     0
 10
183.308
 20
40.8824
 30
0.0
 11
169.307
 21
40.8824
 31
0.0
  0
LINE
  8
0
 62
     0
 10
169.307
 20
40.8824
 30
0.0
 11
169.307
 21
54.8816
 31
0.0
  0
LINE
  8
0
 62
     0
 10
188.357
 20
54.8816
 30
0.0
 11
202.358
 21
54.8816
 31
0.0
  0
LINE
  8
0
 62
     0
 10
202.358
 20
54.8816
 30
0.0
 11
202.358
 21
40.8824
 31
0.0
  0
LINE
  8
0
 62
     0
 10
202.358
 20
40.8824
 30
0.0
 11
188.357
 21
40.8824
 31
0.0
  0
LINE
  8
0
 62
     0
 10
188.357
 20
40.8824
 30
0.0
 11
188.357
 21
54.8816
 31
0.0
  0
LINE
  8
0
 62
     0
 10
207.407
 20
54.8816
 30
0.0
 11
221.408
 21
54.8816
 31
0.0
  0
LINE
  8
0
 62
     0
 10
221.408
 20
54.8816
 30
0.0
 11
221.408
 21
40.8824
 31
0.0
  0
LINE
  8
0
 62
     0
 10
221.408
 20
40.8824
 30
0.0
 11
207.407
 21
40.8824
 31
0.0
  0
LINE
  8
0
 62
     0
 10
207.407
 20
40.8824
 30
0.0
 11
207.407
 21
54.8816
 31
0.0
  0
LINE
  8
0
 62
     0
 10
226.457
 20
54.8816
 30
0.0
 11
240.458
 21
54.8816
 31
0.0
  0
LINE
  8
0
 62
     0
 10
240.458
 20
54.8816
 30
0.0
 11
240.458
 21
40.8824
 31
0.0
  0
LINE
  8
0
 62
     0
 10
240.458
 20
40.8824
 30
0.0
 11
226.457
 21
40.8824
 31
0.0
  0
LINE
  8
0
 62
     0
 10
226.457
 20
40.8824
 30
0.0
 11
226.457
 21
54.8816
 31
0.0
  0
LINE
  8
0
 62
     0
 10
307.421
 20
54.8816
 30
0.0
 11
321.42
 21
54.8816
 31
0.0
  0
LINE
  8
0
 62
     0
 10
321.42
 20
54.8816
 30
0.0
 11
321.42
 21
40.8824
 31
0.0
  0
LINE
  8
0
 62
     0
 10
321.42
 20
40.8824
 30
0.0
 11
307.421
 21
40.8824
 31
0.0
  0
LINE
  8
0
 62
     0
 10
307.421
 20
40.8824
 30
0.0
 11
307.421
 21
54.8816
 31
0.0
  0
LINE
  8
0
 62
     0
 10
326.471
 20
54.8816
 30
0.0
 11
340.47
 21
54.8816
 31
0.0
  0
LINE
  8
0
 62
     0
 10
340.47
 20
54.8816
 30
0.0
 11
340.47
 21
40.8824
 31
0.0
  0
LINE
  8
0
 62
     0
 10
340.47
 20
40.8824
 30
0.0
 11
326.471
 21
40.8824
 31
0.0
  0
LINE
  8
0
 62
     0
 10
326.471
 20
40.8824
 30
0.0
 11
326.471
 21
54.8816
 31
0.0
  0
LINE
  8
0
 62
     0
 10
345.521
 20
54.8816
 30
0.0
 11
359.519
 21
54.8816
 31
0.0
  0
LINE
  8
0
 62
     0
 10
359.519
 20
54.8816
 30
0.0
 11
359.519
 21
40.8824
 31
0.0
  0
LINE
  8
0
 62
     0
 10
359.519
 20
40.8824
 30
0.0
 11
345.521
 21
40.8824
 31
0.0
  0
LINE
  8
0
 62
     0
 10
345.521
 20
40.8824
 30
0.0
 11
345.521
 21
54.8816
 31
0.0
  0
LINE
  8
0
 62
     0
 10
364.571
 20
54.8816
 30
0.0
 11
378.569
 21
54.8816
 31
0.0
  0
LINE
  8
0
 62
     0
 10
378.569
 20
54.8816
 30
0.0
 11
378.569
 21
40.8824
 31
0.0
  0
LINE
  8
0
 62
     0
 10
378.569
 20
40.8824
 30
0.0
 11
364.571
 21
40.8824
 31
0.0
  0
LINE
  8
0
 62
     0
 10
364.571
 20
40.8824
 30
0.0
 11
364.571
 21
54.8816
 31
0.0
  0
LINE
  8
0
 62
     0
 10
7.38216
 20
73.9316
 30
0.0
 11
21.383
 21
73.9316
 31
0.0
  0
LINE
  8
0
 62
     0
 10
21.383
 20
73.9316
 30
0.0
 11
21.383
 21
59.9324
 31
0.0
  0
LINE
  8
0
 62
     0
 10
21.383
 20
59.9324
 30
0.0
 11
7.38216
 21
59.9324
 31
0.0
  0
LINE
  8
0
 62
     0
 10
7.38216
 20
59.9324
 30
0.0
 11
7.38216
 21
73.9316
 31
0.0
  0
LINE
  8
0
 62
     0
 10
31.196
 20
73.9316
 30
0.0
 11
45.1954
 21
73.9316
 31
0.0
  0
LINE
  8
0
 62
     0
 10
45.1954
 20
73.9316
 30
0.0
 11
45.1954
 21
59.9324
 31
0.0
  0
LINE
  8
0
 62
     0
 10
45.1954
 20
59.9324
 30
0.0
 11
31.196
 21
59.9324
 31
0.0
  0
LINE
  8
0
 62
     0
 10
31.196
 20
59.9324
 30
0.0
 11
31.196
 21
73.9316
 31
0.0
  0
LINE
  8
0
 62
     0
 10
50.2461
 20
73.9316
 30
0.0
 11
64.2454
 21
73.9316
 31
0.0
  0
LINE
  8
0
 62
     0
 10
64.2454
 20
73.9316
 30
0.0
 11
64.2454
 21
59.9324
 31
0.0
  0
LINE
  8
0
 62
     0
 10
64.2454
 20
59.9324
 30
0.0
 11
50.2461
 21
59.9324
 31
0.0
  0
LINE
  8
0
 62
     0
 10
50.2461
 20
59.9324
 30
0.0
 11
50.2461
 21
73.9316
 31
0.0
  0
LINE
  8
0
 62
     0
 10
69.2961
 20
73.9316
 30
0.0
 11
83.2954
 21
73.9316
 31
0.0
  0
LINE
  8
0
 62
     0
 10
83.2954
 20
73.9316
 30
0.0
 11
83.2954
 21
59.9324
 31
0.0
  0
LINE
  8
0
 62
     0
 10
83.2954
 20
59.9324
 30
0.0
 11
69.2961
 21
59.9324
 31
0.0
  0
LINE
  8
0
 62
     0
 10
69.2961
 20
59.9324
 30
0.0
 11
69.2961
 21
73.9316
 31
0.0
  0
LINE
  8
0
 62
     0
 10
88.3461
 20
73.9316
 30
0.0
 11
102.345
 21
73.9316
 31
0.0
  0
LINE
  8
0
 62
     0
 10
102.345
 20
73.9316
 30
0.0
 11
102.345
 21
59.9324
 31
0.0
  0
LINE
  8
0
 62
     0
 10
102.345
 20
59.9324
 30
0.0
 11
88.3461
 21
59.9324
 31
0.0
  0
LINE
  8
0
 62
     0
 10
88.3461
 20
59.9324
 30
0.0
 11
88.3461
 21
73.9316
 31
0.0
  0
LINE
  8
0
 62
     0
 10
107.396
 20
73.9316
 30
0.0
 11
121.395
 21
73.9316
 31
0.0
  0
LINE
  8
0
 62
     0
 10
121.395
 20
73.9316
 30
0.0
 11
121.395
 21
59.9324
 31
0.0
  0
LINE
  8
0
 62
     0
 10
121.395
 20
59.9324
 30
0.0
 11
107.396
 21
59.9324
 31
0.0
  0
LINE
  8
0
 62
     0
 10
107.396
 20
59.9324
 30
0.0
 11
107.396
 21
73.9316
 31
0.0
  0
LINE
  8
0
 62
     0
 10
126.446
 20
73.9316
 30
0.0
 11
140.445
 21
73.9316
 31
0.0
  0
LINE
  8
0
 62
     0
 10
140.445
 20
73.9316
 30
0.0
 11
140.445
 21
59.9324
 31
0.0
  0
LINE
  8
0
 62
     0
 10
140.445
 20
59.9324
 30
0.0
 11
126.446
 21
59.9324
 31
0.0
  0
LINE
  8
0
 62
     0
 10
126.446
 20
59.9324
 30
0.0
 11
126.446
 21
73.9316
 31
0.0
  0
LINE
  8
0
 62
     0
 10
145.496
 20
73.9316
 30
0.0
 11
159.495
 21
73.9316
 31
0.0
  0
LINE
  8
0
 62
     0
 10
159.495
 20
73.9316
 30
0.0
 11
159.495
 21
59.9324
 31
0.0
  0
LINE
  8
0
 62
     0
 10
159.495
 20
59.9324
 30
0.0
 11
145.496
 21
59.9324
 31
0.0
  0
LINE
  8
0
 62
     0
 10
145.496
 20
59.9324
 30
0.0
 11
145.496
 21
73.9316
 31
0.0
  0
LINE
  8
0
 62
     0
 10
164.546
 20
73.9316
 30
0.0
 11
178.545
 21
73.9316
 31
0.0
  0
LINE
  8
0
 62
     0
 10
178.545
 20
73.9316
 30
0.0
 11
178.545
 21
59.9324
 31
0.0
  0
LINE
  8
0
 62
     0
 10
178.545
 20
59.9324
 30
0.0
 11
164.546
 21
59.9324
 31
0.0
  0
LINE
  8
0
 62
     0
 10
164.546
 20
59.9324
 30
0.0
 11
164.546
 21
73.9316
 31
0.0
  0
LINE
  8
0
 62
     0
 10
183.596
 20
73.9316
 30
0.0
 11
197.595
 21
73.9316
 31
0.0
  0
LINE
  8
0
 62
     0
 10
197.595
 20
73.9316
 30
0.0
 11
197.595
 21
59.9324
 31
0.0
  0
LINE
  8
0
 62
     0
 10
197.595
 20
59.9324
 30
0.0
 11
183.596
 21
59.9324
 31
0.0
  0
LINE
  8
0
 62
     0
 10
183.596
 20
59.9324
 30
0.0
 11
183.596
 21
73.9316
 31
0.0
  0
LINE
  8
0
 62
     0
 10
202.646
 20
73.9316
 30
0.0
 11
216.645
 21
73.9316
 31
0.0
  0
LINE
  8
0
 62
     0
 10
216.645
 20
73.9316
 30
0.0
 11
216.645
 21
59.9324
 31
0.0
  0
LINE
  8
0
 62
     0
 10
216.645
 20
59.9324
 30
0.0
 11
202.646
 21
59.9324
 31
0.0
  0
LINE
  8
0
 62
     0
 10
202.646
 20
59.9324
 30
0.0
 11
202.646
 21
73.9316
 31
0.0
  0
LINE
  8
0
 62
     0
 10
221.696
 20
73.9316
 30
0.0
 11
235.695
 21
73.9316
 31
0.0
  0
LINE
  8
0
 62
     0
 10
235.695
 20
73.9316
 30
0.0
 11
235.695
 21
59.9324
 31
0.0
  0
LINE
  8
0
 62
     0
 10
235.695
 20
59.9324
 30
0.0
 11
221.696
 21
59.9324
 31
0.0
  0
LINE
  8
0
 62
     0
 10
221.696
 20
59.9324
 30
0.0
 11
221.696
 21
73.9316
 31
0.0
  0
LINE
  8
0
 62
     0
 10
240.746
 20
73.9316
 30
0.0
 11
254.744
 21
73.9316
 31
0.0
  0
LINE
  8
0
 62
     0
 10
254.744
 20
73.9316
 30
0.0
 11
254.744
 21
59.9324
 31
0.0
  0
LINE
  8
0
 62
     0
 10
254.744
 20
59.9324
 30
0.0
 11
240.746
 21
59.9324
 31
0.0
  0
LINE
  8
0
 62
     0
 10
240.746
 20
59.9324
 30
0.0
 11
240.746
 21
73.9316
 31
0.0
  0
LINE
  8
0
 62
     0
 10
264.557
 20
73.9316
 30
0.0
 11
278.558
 21
73.9316
 31
0.0
  0
LINE
  8
0
 62
     0
 10
278.558
 20
73.9316
 30
0.0
 11
278.558
 21
59.9324
 31
0.0
  0
LINE
  8
0
 62
     0
 10
278.558
 20
59.9324
 30
0.0
 11
264.557
 21
59.9324
 31
0.0
  0
LINE
  8
0
 62
     0
 10
264.557
 20
59.9324
 30
0.0
 11
264.557
 21
73.9316
 31
0.0
  0
LINE
  8
0
 62
     0
 10
307.421
 20
73.9316
 30
0.0
 11
321.42
 21
73.9316
 31
0.0
  0
LINE
  8
0
 62
     0
 10
321.42
 20
73.9316
 30
0.0
 11
321.42
 21
59.9324
 31
0.0
  0
LINE
  8
0
 62
     0
 10
321.42
 20
59.9324
 30
0.0
 11
307.421
 21
59.9324
 31
0.0
  0
LINE
  8
0
 62
     0
 10
307.421
 20
59.9324
 30
0.0
 11
307.421
 21
73.9316
 31
0.0
  0
LINE
  8
0
 62
     0
 10
326.471
 20
73.9316
 30
0.0
 11
340.47
 21
73.9316
 31
0.0
  0
LINE
  8
0
 62
     0
 10
340.47
 20
73.9316
 30
0.0
 11
340.47
 21
59.9324
 31
0.0
  0
LINE
  8
0
 62
     0
 10
340.47
 20
59.9324
 30
0.0
 11
326.471
 21
59.9324
 31
0.0
  0
LINE
  8
0
 62
     0
 10
326.471
 20
59.9324
 30
0.0
 11
326.471
 21
73.9316
 31
0.0
  0
LINE
  8
0
 62
     0
 10
345.521
 20
73.9316
 30
0.0
 11
359.519
 21
73.9316
 31
0.0
  0
LINE
  8
0
 62
     0
 10
359.519
 20
73.9316
 30
0.0
 11
359.519
 21
59.9324
 31
0.0
  0
LINE
  8
0
 62
     0
 10
359.519
 20
59.9324
 30
0.0
 11
345.521
 21
59.9324
 31
0.0
  0
LINE
  8
0
 62
     0
 10
345.521
 20
59.9324
 30
0.0
 11
345.521
 21
73.9316
 31
0.0
  0
LINE
  8
0
 62
     0
 10
364.571
 20
73.9316
 30
0.0
 11
378.569
 21
73.9316
 31
0.0
  0
LINE
  8
0
 62
     0
 10
378.569
 20
73.9316
 30
0.0
 11
378.569
 21
59.9324
 31
0.0
  0
LINE
  8
0
 62
     0
 10
378.569
 20
59.9324
 30
0.0
 11
364.571
 21
59.9324
 31
0.0
  0
LINE
  8
0
 62
     0
 10
364.571
 20
59.9324
 30
0.0
 11
364.571
 21
73.9316
 31
0.0
  0
LINE
  8
0
 62
     0
 10
259.796
 20
92.9816
 30
0.0
 11
259.796
 21
88.2826
 31
0.0
  0
LINE
  8
0
 62
     0
 10
259.796
 20
88.2826
 30
0.0
 11
258.27
 21
88.2826
 31
0.0
  0
LINE
  8
0
 62
     0
 10
258.27
 20
88.2826
 30
0.0
 11
258.27
 21
91.5127
 31
0.0
  0
LINE
  8
0
 62
     0
 10
258.27
 20
91.5127
 30
0.0
 11
251.521
 21
91.5127
 31
0.0
  0
LINE
  8
0
 62
     0
 10
251.521
 20
91.5127
 30
0.0
 11
251.521
 21
88.2826
 31
0.0
  0
LINE
  8
0
 62
     0
 10
251.521
 20
88.2826
 30
0.0
 11
250.696
 21
88.2826
 31
0.0
  0
LINE
  8
0
 62
     0
 10
250.696
 20
88.2826
 30
0.0
 11
250.696
 21
85.4826
 31
0.0
  0
LINE
  8
0
 62
     0
 10
250.696
 20
85.4826
 30
0.0
 11
251.521
 21
85.4826
 31
0.0
  0
LINE
  8
0
 62
     0
 10
251.521
 20
85.4826
 30
0.0
 11
251.521
 21
79.2124
 31
0.0
  0
LINE
  8
0
 62
     0
 10
251.521
 20
79.2124
 30
0.0
 11
253.245
 21
79.2124
 31
0.0
  0
LINE
  8
0
 62
     0
 10
253.245
 20
79.2124
 30
0.0
 11
253.245
 21
78.0122
 31
0.0
  0
LINE
  8
0
 62
     0
 10
253.245
 20
78.0122
 30
0.0
 11
256.545
 21
78.0122
 31
0.0
  0
LINE
  8
0
 62
     0
 10
256.545
 20
78.0122
 30
0.0
 11
256.545
 21
79.2124
 31
0.0
  0
LINE
  8
0
 62
     0
 10
256.545
 20
79.2124
 30
0.0
 11
258.27
 21
79.2124
 31
0.0
  0
LINE
  8
0
 62
     0
 10
258.27
 20
79.2124
 30
0.0
 11
258.27
 21
83.6828
 31
0.0
  0
LINE
  8
0
 62
     0
 10
258.27
 20
83.6828
 30
0.0
 11
259.796
 21
83.6828
 31
0.0
  0
LINE
  8
0
 62
     0
 10
259.796
 20
83.6828
 30
0.0
 11
259.796
 21
78.9824
 31
0.0
  0
LINE
  8
0
 62
     0
 10
259.796
 20
78.9824
 30
0.0
 11
273.795
 21
78.9824
 31
0.0
  0
LINE
  8
0
 62
     0
 10
273.795
 20
78.9824
 30
0.0
 11
273.795
 21
83.6828
 31
0.0
  0
LINE
  8
0
 62
     0
 10
273.795
 20
83.6828
 30
0.0
 11
275.321
 21
83.6828
 31
0.0
  0
LINE
  8
0
 62
     0
 10
275.321
 20
83.6828
 30
0.0
 11
275.321
 21
79.2124
 31
0.0
  0
LINE
  8
0
 62
     0
 10
275.321
 20
79.2124
 30
0.0
 11
277.045
 21
79.2124
 31
0.0
  0
LINE
  8
0
 62
     0
 10
277.045
 20
79.2124
 30
0.0
 11
277.045
 21
78.0122
 31
0.0
  0
LINE
  8
0
 62
     0
 10
277.045
 20
78.0122
 30
0.0
 11
280.345
 21
78.0122
 31
0.0
  0
LINE
  8
0
 62
     0
 10
280.345
 20
78.0122
 30
0.0
 11
280.345
 21
79.2124
 31
0.0
  0
LINE
  8
0
 62
     0
 10
280.345
 20
79.2124
 30
0.0
 11
282.071
 21
79.2124
 31
0.0
  0
LINE
  8
0
 62
     0
 10
282.071
 20
79.2124
 30
0.0
 11
282.071
 21
85.4826
 31
0.0
  0
LINE
  8
0
 62
     0
 10
282.071
 20
85.4826
 30
0.0
 11
282.896
 21
85.4826
 31
0.0
  0
LINE
  8
0
 62
     0
 10
282.896
 20
85.4826
 30
0.0
 11
282.896
 21
88.2826
 31
0.0
  0
LINE
  8
0
 62
     0
 10
282.896
 20
88.2826
 30
0.0
 11
282.071
 21
88.2826
 31
0.0
  0
LINE
  8
0
 62
     0
 10
282.071
 20
88.2826
 30
0.0
 11
282.071
 21
91.5127
 31
0.0
  0
LINE
  8
0
 62
     0
 10
282.071
 20
91.5127
 30
0.0
 11
275.321
 21
91.5127
 31
0.0
  0
LINE
  8
0
 62
     0
 10
275.321
 20
91.5127
 30
0.0
 11
275.321
 21
88.2826
 31
0.0
  0
LINE
  8
0
 62
     0
 10
275.321
 20
88.2826
 30
0.0
 11
273.795
 21
88.2826
 31
0.0
  0
LINE
  8
0
 62
     0
 10
273.795
 20
88.2826
 30
0.0
 11
273.795
 21
92.9816
 31
0.0
  0
LINE
  8
0
 62
     0
 10
273.795
 20
92.9816
 30
0.0
 11
259.796
 21
92.9816
 31
0.0
  0
LINE
  8
0
 62
     0
 10
2.62103
 20
92.9816
 30
0.0
 11
16.6205
 21
92.9816
 31
0.0
  0
LINE
  8
0
 62
     0
 10
16.6205
 20
92.9816
 30
0.0
 11
16.6205
 21
78.9824
 31
0.0
  0
LINE
  8
0
 62
     0
 10
16.6205
 20
78.9824
 30
0.0
 11
2.62103
 21
78.9824
 31
0.0
  0
LINE
  8
0
 62
     0
 10
2.62103
 20
78.9824
 30
0.0
 11
2.62103
 21
92.9816
 31
0.0
  0
LINE
  8
0
 62
     0
 10
21.671
 20
92.9816
 30
0.0
 11
35.6704
 21
92.9816
 31
0.0
  0
LINE
  8
0
 62
     0
 10
35.6704
 20
92.9816
 30
0.0
 11
35.6704
 21
78.9824
 31
0.0
  0
LINE
  8
0
 62
     0
 10
35.6704
 20
78.9824
 30
0.0
 11
21.671
 21
78.9824
 31
0.0
  0
LINE
  8
0
 62
     0
 10
21.671
 20
78.9824
 30
0.0
 11
21.671
 21
92.9816
 31
0.0
  0
LINE
  8
0
 62
     0
 10
40.7211
 20
92.9816
 30
0.0
 11
54.7204
 21
92.9816
 31
0.0
  0
LINE
  8
0
 62
     0
 10
54.7204
 20
92.9816
 30
0.0
 11
54.7204
 21
78.9824
 31
0.0
  0
LINE
  8
0
 62
     0
 10
54.7204
 20
78.9824
 30
0.0
 11
40.7211
 21
78.9824
 31
0.0
  0
LINE
  8
0
 62
     0
 10
40.7211
 20
78.9824
 30
0.0
 11
40.7211
 21
92.9816
 31
0.0
  0
LINE
  8
0
 62
     0
 10
59.7711
 20
92.9816
 30
0.0
 11
73.7704
 21
92.9816
 31
0.0
  0
LINE
  8
0
 62
     0
 10
73.7704
 20
92.9816
 30
0.0
 11
73.7704
 21
78.9824
 31
0.0
  0
LINE
  8
0
 62
     0
 10
73.7704
 20
78.9824
 30
0.0
 11
59.7711
 21
78.9824
 31
0.0
  0
LINE
  8
0
 62
     0
 10
59.7711
 20
78.9824
 30
0.0
 11
59.7711
 21
92.9816
 31
0.0
  0
LINE
  8
0
 62
     0
 10
78.8211
 20
92.9816
 30
0.0
 11
92.8204
 21
92.9816
 31
0.0
  0
LINE
  8
0
 62
     0
 10
92.8204
 20
92.9816
 30
0.0
 11
92.8204
 21
78.9824
 31
0.0
  0
LINE
  8
0
 62
     0
 10
92.8204
 20
78.9824
 30
0.0
 11
78.8211
 21
78.9824
 31
0.0
  0
LINE
  8
0
 62
     0
 10
78.8211
 20
78.9824
 30
0.0
 11
78.8211
 21
92.9816
 31
0.0
  0
LINE
  8
0
 62
     0
 10
97.8697
 20
92.9816
 30
0.0
 11
111.869
 21
92.9816
 31
0.0
  0
LINE
  8
0
 62
     0
 10
111.869
 20
92.9816
 30
0.0
 11
111.869
 21
78.9824
 31
0.0
  0
LINE
  8
0
 62
     0
 10
111.869
 20
78.9824
 30
0.0
 11
97.8697
 21
78.9824
 31
0.0
  0
LINE
  8
0
 62
     0
 10
97.8697
 20
78.9824
 30
0.0
 11
97.8697
 21
92.9816
 31
0.0
  0
LINE
  8
0
 62
     0
 10
116.92
 20
92.9816
 30
0.0
 11
130.92
 21
92.9816
 31
0.0
  0
LINE
  8
0
 62
     0
 10
130.92
 20
92.9816
 30
0.0
 11
130.92
 21
78.9824
 31
0.0
  0
LINE
  8
0
 62
     0
 10
130.92
 20
78.9824
 30
0.0
 11
116.92
 21
78.9824
 31
0.0
  0
LINE
  8
0
 62
     0
 10
116.92
 20
78.9824
 30
0.0
 11
116.92
 21
92.9816
 31
0.0
  0
LINE
  8
0
 62
     0
 10
135.971
 20
92.9816
 30
0.0
 11
149.97
 21
92.9816
 31
0.0
  0
LINE
  8
0
 62
     0
 10
149.97
 20
92.9816
 30
0.0
 11
149.97
 21
78.9824
 31
0.0
  0
LINE
  8
0
 62
     0
 10
149.97
 20
78.9824
 30
0.0
 11
135.971
 21
78.9824
 31
0.0
  0
LINE
  8
0
 62
     0
 10
135.971
 20
78.9824
 30
0.0
 11
135.971
 21
92.9816
 31
0.0
  0
LINE
  8
0
 62
     0
 10
155.021
 20
92.9816
 30
0.0
 11
169.02
 21
92.9816
 31
0.0
  0
LINE
  8
0
 62
     0
 10
169.02
 20
92.9816
 30
0.0
 11
169.02
 21
78.9824
 31
0.0
  0
LINE
  8
0
 62
     0
 10
169.02
 20
78.9824
 30
0.0
 11
155.021
 21
78.9824
 31
0.0
  0
LINE
  8
0
 62
     0
 10
155.021
 20
78.9824
 30
0.0
 11
155.021
 21
92.9816
 31
0.0
  0
LINE
  8
0
 62
     0
 10
174.071
 20
92.9816
 30
0.0
 11
188.07
 21
92.9816
 31
0.0
  0
LINE
  8
0
 62
     0
 10
188.07
 20
92.9816
 30
0.0
 11
188.07
 21
78.9824
 31
0.0
  0
LINE
  8
0
 62
     0
 10
188.07
 20
78.9824
 30
0.0
 11
174.071
 21
78.9824
 31
0.0
  0
LINE
  8
0
 62
     0
 10
174.071
 20
78.9824
 30
0.0
 11
174.071
 21
92.9816
 31
0.0
  0
LINE
  8
0
 62
     0
 10
193.121
 20
92.9816
 30
0.0
 11
207.12
 21
92.9816
 31
0.0
  0
LINE
  8
0
 62
     0
 10
207.12
 20
92.9816
 30
0.0
 11
207.12
 21
78.9824
 31
0.0
  0
LINE
  8
0
 62
     0
 10
207.12
 20
78.9824
 30
0.0
 11
193.121
 21
78.9824
 31
0.0
  0
LINE
  8
0
 62
     0
 10
193.121
 20
78.9824
 30
0.0
 11
193.121
 21
92.9816
 31
0.0
  0
LINE
  8
0
 62
     0
 10
212.171
 20
92.9816
 30
0.0
 11
226.17
 21
92.9816
 31
0.0
  0
LINE
  8
0
 62
     0
 10
226.17
 20
92.9816
 30
0.0
 11
226.17
 21
78.9824
 31
0.0
  0
LINE
  8
0
 62
     0
 10
226.17
 20
78.9824
 30
0.0
 11
212.171
 21
78.9824
 31
0.0
  0
LINE
  8
0
 62
     0
 10
212.171
 20
78.9824
 30
0.0
 11
212.171
 21
92.9816
 31
0.0
  0
LINE
  8
0
 62
     0
 10
231.221
 20
92.9816
 30
0.0
 11
245.22
 21
92.9816
 31
0.0
  0
LINE
  8
0
 62
     0
 10
245.22
 20
92.9816
 30
0.0
 11
245.22
 21
78.9824
 31
0.0
  0
LINE
  8
0
 62
     0
 10
245.22
 20
78.9824
 30
0.0
 11
231.221
 21
78.9824
 31
0.0
  0
LINE
  8
0
 62
     0
 10
231.221
 20
78.9824
 30
0.0
 11
231.221
 21
92.9816
 31
0.0
  0
LINE
  8
0
 62
     0
 10
307.421
 20
92.9816
 30
0.0
 11
321.42
 21
92.9816
 31
0.0
  0
LINE
  8
0
 62
     0
 10
321.42
 20
92.9816
 30
0.0
 11
321.42
 21
78.9824
 31
0.0
  0
LINE
  8
0
 62
     0
 10
321.42
 20
78.9824
 30
0.0
 11
307.421
 21
78.9824
 31
0.0
  0
LINE
  8
0
 62
     0
 10
307.421
 20
78.9824
 30
0.0
 11
307.421
 21
92.9816
 31
0.0
  0
LINE
  8
0
 62
     0
 10
326.471
 20
92.9816
 30
0.0
 11
340.47
 21
92.9816
 31
0.0
  0
LINE
  8
0
 62
     0
 10
340.47
 20
92.9816
 30
0.0
 11
340.47
 21
78.9824
 31
0.0
  0
LINE
  8
0
 62
     0
 10
340.47
 20
78.9824
 30
0.0
 11
326.471
 21
78.9824
 31
0.0
  0
LINE
  8
0
 62
     0
 10
326.471
 20
78.9824
 30
0.0
 11
326.471
 21
92.9816
 31
0.0
  0
LINE
  8
0
 62
     0
 10
345.521
 20
92.9816
 30
0.0
 11
359.519
 21
92.9816
 31
0.0
  0
LINE
  8
0
 62
     0
 10
359.519
 20
92.9816
 30
0.0
 11
359.519
 21
78.9824
 31
0.0
  0
LINE
  8
0
 62
     0
 10
359.519
 20
78.9824
 30
0.0
 11
345.521
 21
78.9824
 31
0.0
  0
LINE
  8
0
 62
     0
 10
345.521
 20
78.9824
 30
0.0
 11
345.521
 21
92.9816
 31
0.0
  0
LINE
  8
0
 62
     0
 10
364.571
 20
92.9816
 30
0.0
 11
378.569
 21
92.9816
 31
0.0
  0
LINE
  8
0
 62
     0
 10
378.569
 20
92.9816
 30
0.0
 11
378.569
 21
78.9824
 31
0.0
  0
LINE
  8
0
 62
     0
 10
378.569
 20
78.9824
 30
0.0
 11
364.571
 21
78.9824
 31
0.0
  0
LINE
  8
0
 62
     0
 10
364.571
 20
78.9824
 30
0.0
 11
364.571
 21
92.9816
 31
0.0
  0
ENDSEC
  0
EOF
